999
"DXF R12 Output" (www.mydxf.blogspot.com)
 0 
SECTION
 2 
HEADER
 9 
$ACADVER
 1 
AC1009
 9 
$EXTMIN
 10 
 0 
 20 
 0 
 9 
$EXTMAX
 10 
 8.5 
 20 
 11 
 0 
ENDSEC
 0 
SECTION
 2 
ENTITIES
0
LINE
8
Layer 1
10
0.793749
20
161.057749
11
-0.793749
21
159.470251
0
LINE
8
Layer 1
10
0.000000
20
161.586915
11
0.000000
21
158.941085
0
LINE
8
Layer 1
10
2.116664
20
159.205668
11
1.058332
21
158.147336
0
LINE
8
Layer 1
10
1.587498
20
159.734834
11
0.529166
21
158.676502
0
LINE
8
Layer 1
10
1.058332
20
160.264000
11
0.000000
21
159.205668
0
LINE
8
0
10
730.458203
20
139.932547
11
709.855124
21
139.932547
0
LINE
8
0
10
709.855124
20
149.932461
11
708.847063
21
149.830861
0
LINE
8
0
10
708.847063
20
149.830861
11
707.910439
21
149.539555
0
LINE
8
0
10
707.910439
20
149.539555
11
707.061128
21
149.078652
0
LINE
8
0
10
707.061128
20
149.078652
11
706.320295
21
148.467994
0
LINE
8
0
10
706.320295
20
148.467994
11
705.709109
21
147.728220
0
LINE
8
0
10
705.709109
20
147.728220
11
705.248734
21
146.878909
0
LINE
8
0
10
705.248734
20
146.878909
11
704.957693
21
145.940168
0
LINE
8
0
10
704.957693
20
145.940168
11
704.857151
21
144.932636
0
LINE
8
0
10
704.857151
20
144.932636
11
704.957693
21
143.924840
0
LINE
8
0
10
704.957693
20
143.924840
11
705.248734
21
142.986364
0
LINE
8
0
10
705.248734
20
142.986364
11
705.709109
21
142.137052
0
LINE
8
0
10
705.709109
20
142.137052
11
706.320295
21
141.397014
0
LINE
8
0
10
706.320295
20
141.397014
11
707.061128
21
140.786621
0
LINE
8
0
10
707.061128
20
140.786621
11
707.910439
21
140.325453
0
LINE
8
0
10
707.910439
20
140.325453
11
708.847063
21
140.034147
0
LINE
8
0
10
708.847063
20
140.034147
11
709.855124
21
139.932547
0
LINE
8
0
10
709.855124
20
149.932461
11
730.458203
21
149.932461
0
LINE
8
0
10
730.458203
20
139.932547
11
731.466264
21
140.034147
0
LINE
8
0
10
731.466264
20
140.034147
11
732.405533
21
140.325453
0
LINE
8
0
10
732.405533
20
140.325453
11
733.254845
21
140.786621
0
LINE
8
0
10
733.254845
20
140.786621
11
733.993031
21
141.397014
0
LINE
8
0
10
733.993031
20
141.397014
11
734.604218
21
142.137052
0
LINE
8
0
10
734.604218
20
142.137052
11
735.064593
21
142.986364
0
LINE
8
0
10
735.064593
20
142.986364
11
735.358280
21
143.924840
0
LINE
8
0
10
735.358280
20
143.924840
11
735.458821
21
144.932636
0
LINE
8
0
10
735.458821
20
144.932636
11
735.358280
21
145.940168
0
LINE
8
0
10
735.358280
20
145.940168
11
735.064593
21
146.878909
0
LINE
8
0
10
735.064593
20
146.878909
11
734.604218
21
147.728220
0
LINE
8
0
10
734.604218
20
147.728220
11
733.993031
21
148.467994
0
LINE
8
0
10
733.993031
20
148.467994
11
733.254845
21
149.078652
0
LINE
8
0
10
733.254845
20
149.078652
11
732.405533
21
149.539555
0
LINE
8
0
10
732.405533
20
149.539555
11
731.466264
21
149.830861
0
LINE
8
0
10
731.466264
20
149.830861
11
730.458203
21
149.932461
0
LINE
8
0
10
716.858636
20
100.333203
11
737.461715
21
100.333203
0
LINE
8
0
10
737.459069
20
90.331965
11
738.467130
21
90.435153
0
LINE
8
0
10
738.467130
20
90.435153
11
739.406400
21
90.726194
0
LINE
8
0
10
739.406400
20
90.726194
11
740.255711
21
91.186569
0
LINE
8
0
10
740.255711
20
91.186569
11
740.996543
21
91.797755
0
LINE
8
0
10
740.996543
20
91.797755
11
741.605084
21
92.535942
0
LINE
8
0
10
741.605084
20
92.535942
11
742.068105
21
93.385253
0
LINE
8
0
10
742.068105
20
93.385253
11
742.359146
21
94.324523
0
LINE
8
0
10
742.359146
20
94.324523
11
742.459687
21
95.332584
0
LINE
8
0
10
742.459687
20
95.332584
11
742.359146
21
96.340645
0
LINE
8
0
10
742.359146
20
96.340645
11
742.068105
21
97.279915
0
LINE
8
0
10
742.068105
20
97.279915
11
741.605084
21
98.129227
0
LINE
8
0
10
741.605084
20
98.129227
11
740.996543
21
98.867413
0
LINE
8
0
10
740.996543
20
98.867413
11
740.255711
21
99.478600
0
LINE
8
0
10
740.255711
20
99.478600
11
739.406400
21
99.938974
0
LINE
8
0
10
739.406400
20
99.938974
11
738.467130
21
100.230016
0
LINE
8
0
10
738.467130
20
100.230016
11
737.459069
21
100.333203
0
LINE
8
0
10
737.461715
20
90.331965
11
716.858636
21
90.331965
0
LINE
8
0
10
716.858636
20
100.333203
11
715.850575
21
100.230016
0
LINE
8
0
10
715.850575
20
100.230016
11
714.911305
21
99.938974
0
LINE
8
0
10
714.911305
20
99.938974
11
714.061994
21
99.478600
0
LINE
8
0
10
714.061994
20
99.478600
11
713.321162
21
98.867413
0
LINE
8
0
10
713.321162
20
98.867413
11
712.709975
21
98.129227
0
LINE
8
0
10
712.709975
20
98.129227
11
712.249600
21
97.279915
0
LINE
8
0
10
712.249600
20
97.279915
11
711.958559
21
96.340645
0
LINE
8
0
10
711.958559
20
96.340645
11
711.858018
21
95.332584
0
LINE
8
0
10
711.858018
20
95.332584
11
711.958559
21
94.324523
0
LINE
8
0
10
711.958559
20
94.324523
11
712.249600
21
93.385253
0
LINE
8
0
10
712.249600
20
93.385253
11
712.709975
21
92.535942
0
LINE
8
0
10
712.709975
20
92.535942
11
713.321162
21
91.797755
0
LINE
8
0
10
713.321162
20
91.797755
11
714.061994
21
91.186569
0
LINE
8
0
10
714.061994
20
91.186569
11
714.911305
21
90.726194
0
LINE
8
0
10
714.911305
20
90.726194
11
715.850575
21
90.435153
0
LINE
8
0
10
715.850575
20
90.435153
11
716.858636
21
90.331965
0
LINE
8
0
10
714.159890
20
59.931379
11
703.015654
21
59.931379
0
LINE
8
0
10
703.015654
20
69.932616
11
701.711260
21
69.760637
0
LINE
8
0
10
701.711260
20
69.760637
11
700.515344
21
69.263221
0
LINE
8
0
10
700.515344
20
69.263221
11
699.488762
21
68.474764
0
LINE
8
0
10
699.488762
20
68.474764
11
698.687076
21
67.432307
0
LINE
8
0
10
698.687076
20
67.432307
11
698.184368
21
66.215225
0
LINE
8
0
10
698.184368
20
66.215225
11
698.015035
21
64.931997
0
LINE
8
0
10
698.015035
20
64.931997
11
698.184368
21
63.648770
0
LINE
8
0
10
698.184368
20
63.648770
11
698.687076
21
62.431688
0
LINE
8
0
10
698.687076
20
62.431688
11
699.488762
21
61.389231
0
LINE
8
0
10
699.488762
20
61.389231
11
700.515344
21
60.603420
0
LINE
8
0
10
700.515344
20
60.603420
11
701.711260
21
60.106004
0
LINE
8
0
10
701.711260
20
60.106004
11
703.015654
21
59.934025
0
LINE
8
0
10
703.015654
20
69.932616
11
714.159890
21
69.932616
0
LINE
8
0
10
714.159890
20
59.934025
11
715.464284
21
60.106004
0
LINE
8
0
10
715.464284
20
60.106004
11
716.657553
21
60.603420
0
LINE
8
0
10
716.657553
20
60.603420
11
717.686781
21
61.389231
0
LINE
8
0
10
717.686781
20
61.389231
11
718.488468
21
62.431688
0
LINE
8
0
10
718.488468
20
62.431688
11
718.991175
21
63.648770
0
LINE
8
0
10
718.991175
20
63.648770
11
719.157863
21
64.931997
0
LINE
8
0
10
719.157863
20
64.931997
11
718.991175
21
66.215225
0
LINE
8
0
10
718.991175
20
66.215225
11
718.488468
21
67.432307
0
LINE
8
0
10
718.488468
20
67.432307
11
717.686781
21
68.474764
0
LINE
8
0
10
717.686781
20
68.474764
11
716.657553
21
69.263221
0
LINE
8
0
10
716.657553
20
69.263221
11
715.464284
21
69.760637
0
LINE
8
0
10
715.464284
20
69.760637
11
714.159890
21
69.932616
0
LINE
8
0
10
699.531096
20
10.332650
11
688.386860
21
10.332650
0
LINE
8
0
10
688.386860
20
20.333887
11
687.082466
21
20.159262
0
LINE
8
0
10
687.082466
20
20.159262
11
685.886550
21
19.661846
0
LINE
8
0
10
685.886550
20
19.661846
11
684.859968
21
18.876035
0
LINE
8
0
10
684.859968
20
18.876035
11
684.058282
21
17.833578
0
LINE
8
0
10
684.058282
20
17.833578
11
683.555574
21
16.616496
0
LINE
8
0
10
683.555574
20
16.616496
11
683.386241
21
15.333268
0
LINE
8
0
10
683.386241
20
15.333268
11
683.555574
21
14.050041
0
LINE
8
0
10
683.555574
20
14.050041
11
684.058282
21
12.832959
0
LINE
8
0
10
684.058282
20
12.832959
11
684.859968
21
11.790502
0
LINE
8
0
10
684.859968
20
11.790502
11
685.886550
21
11.002045
0
LINE
8
0
10
685.886550
20
11.002045
11
687.082466
21
10.507274
0
LINE
8
0
10
687.082466
20
10.507274
11
688.386860
21
10.332650
0
LINE
8
0
10
688.386860
20
20.331241
11
699.531096
21
20.331241
0
LINE
8
0
10
699.531096
20
10.332650
11
700.835490
21
10.507274
0
LINE
8
0
10
700.835490
20
10.507274
11
702.031405
21
11.002045
0
LINE
8
0
10
702.031405
20
11.002045
11
703.057987
21
11.790502
0
LINE
8
0
10
703.057987
20
11.790502
11
703.859674
21
12.832959
0
LINE
8
0
10
703.859674
20
12.832959
11
704.362381
21
14.050041
0
LINE
8
0
10
704.362381
20
14.050041
11
704.529069
21
15.333268
0
LINE
8
0
10
704.529069
20
15.333268
11
704.362381
21
16.616496
0
LINE
8
0
10
704.362381
20
16.616496
11
703.859674
21
17.833578
0
LINE
8
0
10
703.859674
20
17.833578
11
703.057987
21
18.876035
0
LINE
8
0
10
703.057987
20
18.876035
11
702.031405
21
19.661846
0
LINE
8
0
10
702.031405
20
19.661846
11
700.835490
21
20.159262
0
LINE
8
0
10
700.835490
20
20.159262
11
699.531096
21
20.333887
0
LINE
8
0
10
572.730487
20
59.931379
11
561.587574
21
59.931379
0
LINE
8
0
10
561.587838
20
69.932616
11
560.283179
21
69.760637
0
LINE
8
0
10
560.283179
20
69.760637
11
559.087793
21
69.263221
0
LINE
8
0
10
559.087793
20
69.263221
11
558.059888
21
68.474764
0
LINE
8
0
10
558.059888
20
68.474764
11
557.257673
21
67.432307
0
LINE
8
0
10
557.257673
20
67.432307
11
556.755230
21
66.215225
0
LINE
8
0
10
556.755230
20
66.215225
11
556.587749
21
64.931997
0
LINE
8
0
10
556.587749
20
64.931997
11
556.755230
21
63.648770
0
LINE
8
0
10
556.755230
20
63.648770
11
557.257673
21
62.431688
0
LINE
8
0
10
557.257673
20
62.431688
11
558.059888
21
61.389231
0
LINE
8
0
10
558.059888
20
61.389231
11
559.087793
21
60.603420
0
LINE
8
0
10
559.087793
20
60.603420
11
560.283179
21
60.106004
0
LINE
8
0
10
560.283179
20
60.106004
11
561.587838
21
59.934025
0
LINE
8
0
10
561.587574
20
69.932616
11
572.730487
21
69.932616
0
LINE
8
0
10
572.730487
20
59.934025
11
574.035145
21
60.106004
0
LINE
8
0
10
574.035145
20
60.106004
11
575.230531
21
60.603420
0
LINE
8
0
10
575.230531
20
60.603420
11
576.258436
21
61.389231
0
LINE
8
0
10
576.258436
20
61.389231
11
577.060652
21
62.431688
0
LINE
8
0
10
577.060652
20
62.431688
11
577.563095
21
63.648770
0
LINE
8
0
10
577.563095
20
63.648770
11
577.730576
21
64.931997
0
LINE
8
0
10
577.730576
20
64.931997
11
577.563095
21
66.215225
0
LINE
8
0
10
577.563095
20
66.215225
11
577.060652
21
67.432307
0
LINE
8
0
10
577.060652
20
67.432307
11
576.258436
21
68.474764
0
LINE
8
0
10
576.258436
20
68.474764
11
575.230531
21
69.263221
0
LINE
8
0
10
575.230531
20
69.263221
11
574.035145
21
69.760637
0
LINE
8
0
10
574.035145
20
69.760637
11
572.730487
21
69.932616
0
LINE
8
0
10
558.101957
20
10.332650
11
546.959044
21
10.332650
0
LINE
8
0
10
546.959309
20
20.333887
11
545.654650
21
20.159262
0
LINE
8
0
10
545.654650
20
20.159262
11
544.459264
21
19.661846
0
LINE
8
0
10
544.459264
20
19.661846
11
543.431359
21
18.876035
0
LINE
8
0
10
543.431359
20
18.876035
11
542.629143
21
17.833578
0
LINE
8
0
10
542.629143
20
17.833578
11
542.126700
21
16.616496
0
LINE
8
0
10
542.126700
20
16.616496
11
541.959219
21
15.333268
0
LINE
8
0
10
541.959219
20
15.333268
11
542.126700
21
14.050041
0
LINE
8
0
10
542.126700
20
14.050041
11
542.629143
21
12.832959
0
LINE
8
0
10
542.629143
20
12.832959
11
543.431359
21
11.790502
0
LINE
8
0
10
543.431359
20
11.790502
11
544.459264
21
11.002045
0
LINE
8
0
10
544.459264
20
11.002045
11
545.654650
21
10.507274
0
LINE
8
0
10
545.654650
20
10.507274
11
546.959309
21
10.332650
0
LINE
8
0
10
546.959044
20
20.331241
11
558.101957
21
20.331241
0
LINE
8
0
10
558.101957
20
10.332650
11
559.406616
21
10.507274
0
LINE
8
0
10
559.406616
20
10.507274
11
560.602002
21
11.002045
0
LINE
8
0
10
560.602002
20
11.002045
11
561.629907
21
11.790502
0
LINE
8
0
10
561.629907
20
11.790502
11
562.432123
21
12.832959
0
LINE
8
0
10
562.432123
20
12.832959
11
562.934566
21
14.050041
0
LINE
8
0
10
562.934566
20
14.050041
11
563.102047
21
15.333268
0
LINE
8
0
10
563.102047
20
15.333268
11
562.934566
21
16.616496
0
LINE
8
0
10
562.934566
20
16.616496
11
562.432123
21
17.833578
0
LINE
8
0
10
562.432123
20
17.833578
11
561.629907
21
18.876035
0
LINE
8
0
10
561.629907
20
18.876035
11
560.602002
21
19.661846
0
LINE
8
0
10
560.602002
20
19.661846
11
559.406616
21
20.159262
0
LINE
8
0
10
559.406616
20
20.159262
11
558.101957
21
20.333887
0
LINE
8
0
10
591.389144
20
139.932547
11
573.536142
21
139.932547
0
LINE
8
0
10
573.536142
20
149.932461
11
572.528610
21
149.830861
0
LINE
8
0
10
572.528610
20
149.830861
11
571.590134
21
149.539555
0
LINE
8
0
10
571.590134
20
149.539555
11
570.740823
21
149.078652
0
LINE
8
0
10
570.740823
20
149.078652
11
570.000784
21
148.467994
0
LINE
8
0
10
570.000784
20
148.467994
11
569.390126
21
147.728220
0
LINE
8
0
10
569.390126
20
147.728220
11
568.929223
21
146.878909
0
LINE
8
0
10
568.929223
20
146.878909
11
568.637917
21
145.940168
0
LINE
8
0
10
568.637917
20
145.940168
11
568.536317
21
144.932636
0
LINE
8
0
10
568.536317
20
144.932636
11
568.637917
21
143.924840
0
LINE
8
0
10
568.637917
20
143.924840
11
568.929223
21
142.986364
0
LINE
8
0
10
568.929223
20
142.986364
11
569.390126
21
142.137052
0
LINE
8
0
10
569.390126
20
142.137052
11
570.000784
21
141.397014
0
LINE
8
0
10
570.000784
20
141.397014
11
570.740823
21
140.786621
0
LINE
8
0
10
570.740823
20
140.786621
11
571.590134
21
140.325453
0
LINE
8
0
10
571.590134
20
140.325453
11
572.528610
21
140.034147
0
LINE
8
0
10
572.528610
20
140.034147
11
573.536142
21
139.932547
0
LINE
8
0
10
573.536142
20
149.932461
11
591.389144
21
149.932461
0
LINE
8
0
10
591.389144
20
139.932547
11
592.396676
21
140.034147
0
LINE
8
0
10
592.396676
20
140.034147
11
593.335417
21
140.325453
0
LINE
8
0
10
593.335417
20
140.325453
11
594.184728
21
140.786621
0
LINE
8
0
10
594.184728
20
140.786621
11
594.924502
21
141.397014
0
LINE
8
0
10
594.924502
20
141.397014
11
595.535160
21
142.137052
0
LINE
8
0
10
595.535160
20
142.137052
11
595.996064
21
142.986364
0
LINE
8
0
10
595.996064
20
142.986364
11
596.287369
21
143.924840
0
LINE
8
0
10
596.287369
20
143.924840
11
596.388969
21
144.932636
0
LINE
8
0
10
596.388969
20
144.932636
11
596.287369
21
145.940168
0
LINE
8
0
10
596.287369
20
145.940168
11
595.996064
21
146.878909
0
LINE
8
0
10
595.996064
20
146.878909
11
595.535160
21
147.728220
0
LINE
8
0
10
595.535160
20
147.728220
11
594.924502
21
148.467994
0
LINE
8
0
10
594.924502
20
148.467994
11
594.184728
21
149.078652
0
LINE
8
0
10
594.184728
20
149.078652
11
593.335417
21
149.539555
0
LINE
8
0
10
593.335417
20
149.539555
11
592.396676
21
149.830861
0
LINE
8
0
10
592.396676
20
149.830861
11
591.389144
21
149.932461
0
LINE
8
0
10
601.113363
20
90.331965
11
583.260625
21
90.331965
0
LINE
8
0
10
583.260625
20
100.333203
11
582.252829
21
100.230016
0
LINE
8
0
10
582.252829
20
100.230016
11
581.314353
21
99.938974
0
LINE
8
0
10
581.314353
20
99.938974
11
580.465042
21
99.478600
0
LINE
8
0
10
580.465042
20
99.478600
11
579.725003
21
98.867413
0
LINE
8
0
10
579.725003
20
98.867413
11
579.114345
21
98.129227
0
LINE
8
0
10
579.114345
20
98.129227
11
578.653442
21
97.279915
0
LINE
8
0
10
578.653442
20
97.279915
11
578.362136
21
96.340645
0
LINE
8
0
10
578.362136
20
96.340645
11
578.260536
21
95.332584
0
LINE
8
0
10
578.260536
20
95.332584
11
578.362136
21
94.324523
0
LINE
8
0
10
578.362136
20
94.324523
11
578.653442
21
93.385253
0
LINE
8
0
10
578.653442
20
93.385253
11
579.114345
21
92.535942
0
LINE
8
0
10
579.114345
20
92.535942
11
579.725003
21
91.797755
0
LINE
8
0
10
579.725003
20
91.797755
11
580.465042
21
91.186569
0
LINE
8
0
10
580.465042
20
91.186569
11
581.314353
21
90.726194
0
LINE
8
0
10
581.314353
20
90.726194
11
582.252829
21
90.435153
0
LINE
8
0
10
582.252829
20
90.435153
11
583.260625
21
90.331965
0
LINE
8
0
10
583.260625
20
100.333203
11
601.113363
21
100.333203
0
LINE
8
0
10
601.113363
20
90.331965
11
602.120895
21
90.435153
0
LINE
8
0
10
602.120895
20
90.435153
11
603.059636
21
90.726194
0
LINE
8
0
10
603.059636
20
90.726194
11
603.908947
21
91.186569
0
LINE
8
0
10
603.908947
20
91.186569
11
604.648986
21
91.797755
0
LINE
8
0
10
604.648986
20
91.797755
11
605.259379
21
92.535942
0
LINE
8
0
10
605.259379
20
92.535942
11
605.720283
21
93.385253
0
LINE
8
0
10
605.720283
20
93.385253
11
606.011853
21
94.324523
0
LINE
8
0
10
606.011853
20
94.324523
11
606.113453
21
95.332584
0
LINE
8
0
10
606.113453
20
95.332584
11
606.011853
21
96.340645
0
LINE
8
0
10
606.011853
20
96.340645
11
605.720283
21
97.279915
0
LINE
8
0
10
605.720283
20
97.279915
11
605.259379
21
98.129227
0
LINE
8
0
10
605.259379
20
98.129227
11
604.648986
21
98.867413
0
LINE
8
0
10
604.648986
20
98.867413
11
603.908947
21
99.478600
0
LINE
8
0
10
603.908947
20
99.478600
11
603.059636
21
99.938974
0
LINE
8
0
10
603.059636
20
99.938974
11
602.120895
21
100.230016
0
LINE
8
0
10
602.120895
20
100.230016
11
601.113363
21
100.333203
0
LINE
8
0
10
408.536680
20
149.932461
11
426.389629
21
149.932461
0
LINE
8
0
10
426.389365
20
139.932547
11
427.397161
21
140.034147
0
LINE
8
0
10
427.397161
20
140.034147
11
428.335637
21
140.325453
0
LINE
8
0
10
428.335637
20
140.325453
11
429.184949
21
140.786621
0
LINE
8
0
10
429.184949
20
140.786621
11
429.924987
21
141.397014
0
LINE
8
0
10
429.924987
20
141.397014
11
430.535645
21
142.137052
0
LINE
8
0
10
430.535645
20
142.137052
11
430.996549
21
142.986364
0
LINE
8
0
10
430.996549
20
142.986364
11
431.287854
21
143.924840
0
LINE
8
0
10
431.287854
20
143.924840
11
431.389454
21
144.932636
0
LINE
8
0
10
431.389454
20
144.932636
11
431.287854
21
145.940168
0
LINE
8
0
10
431.287854
20
145.940168
11
430.996549
21
146.878909
0
LINE
8
0
10
430.996549
20
146.878909
11
430.535645
21
147.728220
0
LINE
8
0
10
430.535645
20
147.728220
11
429.924987
21
148.467994
0
LINE
8
0
10
429.924987
20
148.467994
11
429.184949
21
149.078652
0
LINE
8
0
10
429.184949
20
149.078652
11
428.335637
21
149.539555
0
LINE
8
0
10
428.335637
20
149.539555
11
427.397161
21
149.830861
0
LINE
8
0
10
427.397161
20
149.830861
11
426.389365
21
149.932461
0
LINE
8
0
10
426.389629
20
139.932547
11
408.536680
21
139.932547
0
LINE
8
0
10
408.536680
20
149.932461
11
407.529015
21
149.830861
0
LINE
8
0
10
407.529015
20
149.830861
11
406.590460
21
149.539555
0
LINE
8
0
10
406.590460
20
149.539555
11
405.741149
21
149.078652
0
LINE
8
0
10
405.741149
20
149.078652
11
405.001163
21
148.467994
0
LINE
8
0
10
405.001163
20
148.467994
11
404.390611
21
147.728220
0
LINE
8
0
10
404.390611
20
147.728220
11
403.929628
21
146.878909
0
LINE
8
0
10
403.929628
20
146.878909
11
403.638269
21
145.940168
0
LINE
8
0
10
403.638269
20
145.940168
11
403.536696
21
144.932636
0
LINE
8
0
10
403.536696
20
144.932636
11
403.638269
21
143.924840
0
LINE
8
0
10
403.638269
20
143.924840
11
403.929628
21
142.986364
0
LINE
8
0
10
403.929628
20
142.986364
11
404.390611
21
142.137052
0
LINE
8
0
10
404.390611
20
142.137052
11
405.001163
21
141.397014
0
LINE
8
0
10
405.001163
20
141.397014
11
405.741149
21
140.786621
0
LINE
8
0
10
405.741149
20
140.786621
11
406.590460
21
140.325453
0
LINE
8
0
10
406.590460
20
140.325453
11
407.529015
21
140.034147
0
LINE
8
0
10
407.529015
20
140.034147
11
408.536680
21
139.932547
0
LINE
8
0
10
436.113848
20
90.331965
11
418.260952
21
90.331965
0
LINE
8
0
10
418.260952
20
100.333203
11
417.253261
21
100.230016
0
LINE
8
0
10
417.253261
20
100.230016
11
416.314732
21
99.938974
0
LINE
8
0
10
416.314732
20
99.938974
11
415.465394
21
99.478600
0
LINE
8
0
10
415.465394
20
99.478600
11
414.725408
21
98.867413
0
LINE
8
0
10
414.725408
20
98.867413
11
414.114883
21
98.129227
0
LINE
8
0
10
414.114883
20
98.129227
11
413.653874
21
97.279915
0
LINE
8
0
10
413.653874
20
97.279915
11
413.362541
21
96.340645
0
LINE
8
0
10
413.362541
20
96.340645
11
413.260942
21
95.332584
0
LINE
8
0
10
413.260942
20
95.332584
11
413.362541
21
94.324523
0
LINE
8
0
10
413.362541
20
94.324523
11
413.653874
21
93.385253
0
LINE
8
0
10
413.653874
20
93.385253
11
414.114883
21
92.535942
0
LINE
8
0
10
414.114883
20
92.535942
11
414.725408
21
91.797755
0
LINE
8
0
10
414.725408
20
91.797755
11
415.465394
21
91.186569
0
LINE
8
0
10
415.465394
20
91.186569
11
416.314732
21
90.726194
0
LINE
8
0
10
416.314732
20
90.726194
11
417.253261
21
90.435153
0
LINE
8
0
10
417.253261
20
90.435153
11
418.260952
21
90.331965
0
LINE
8
0
10
418.260952
20
100.333203
11
436.113848
21
100.333203
0
LINE
8
0
10
436.113848
20
90.331965
11
437.121380
21
90.435153
0
LINE
8
0
10
437.121380
20
90.435153
11
438.059856
21
90.726194
0
LINE
8
0
10
438.059856
20
90.726194
11
438.909168
21
91.186569
0
LINE
8
0
10
438.909168
20
91.186569
11
439.649206
21
91.797755
0
LINE
8
0
10
439.649206
20
91.797755
11
440.259864
21
92.535942
0
LINE
8
0
10
440.259864
20
92.535942
11
440.720768
21
93.385253
0
LINE
8
0
10
440.720768
20
93.385253
11
441.012073
21
94.324523
0
LINE
8
0
10
441.012073
20
94.324523
11
441.113673
21
95.332584
0
LINE
8
0
10
441.113673
20
95.332584
11
441.012073
21
96.340645
0
LINE
8
0
10
441.012073
20
96.340645
11
440.720768
21
97.279915
0
LINE
8
0
10
440.720768
20
97.279915
11
440.259864
21
98.129227
0
LINE
8
0
10
440.259864
20
98.129227
11
439.649206
21
98.867413
0
LINE
8
0
10
439.649206
20
98.867413
11
438.909168
21
99.478600
0
LINE
8
0
10
438.909168
20
99.478600
11
438.059856
21
99.938974
0
LINE
8
0
10
438.059856
20
99.938974
11
437.121380
21
100.230016
0
LINE
8
0
10
437.121380
20
100.230016
11
436.113848
21
100.333203
0
LINE
8
0
10
420.159520
20
69.932616
11
431.302407
21
69.932616
0
LINE
8
0
10
431.302407
20
59.934025
11
432.606801
21
60.106004
0
LINE
8
0
10
432.606801
20
60.106004
11
433.802451
21
60.603420
0
LINE
8
0
10
433.802451
20
60.603420
11
434.830356
21
61.389231
0
LINE
8
0
10
434.830356
20
61.389231
11
435.632572
21
62.431688
0
LINE
8
0
10
435.632572
20
62.431688
11
436.134750
21
63.648770
0
LINE
8
0
10
436.134750
20
63.648770
11
436.302231
21
64.931997
0
LINE
8
0
10
436.302231
20
64.931997
11
436.134750
21
66.215225
0
LINE
8
0
10
436.134750
20
66.215225
11
435.632572
21
67.432307
0
LINE
8
0
10
435.632572
20
67.432307
11
434.830356
21
68.474764
0
LINE
8
0
10
434.830356
20
68.474764
11
433.802451
21
69.263221
0
LINE
8
0
10
433.802451
20
69.263221
11
432.606801
21
69.760637
0
LINE
8
0
10
432.606801
20
69.760637
11
431.302407
21
69.932616
0
LINE
8
0
10
431.302407
20
59.931379
11
420.159520
21
59.931379
0
LINE
8
0
10
420.159520
20
69.932616
11
418.854914
21
69.760637
0
LINE
8
0
10
418.854914
20
69.760637
11
417.659502
21
69.263221
0
LINE
8
0
10
417.659502
20
69.263221
11
416.631570
21
68.474764
0
LINE
8
0
10
416.631570
20
68.474764
11
415.829381
21
67.432307
0
LINE
8
0
10
415.829381
20
67.432307
11
415.326991
21
66.215225
0
LINE
8
0
10
415.326991
20
66.215225
11
415.159510
21
64.931997
0
LINE
8
0
10
415.159510
20
64.931997
11
415.326991
21
63.648770
0
LINE
8
0
10
415.326991
20
63.648770
11
415.829381
21
62.431688
0
LINE
8
0
10
415.829381
20
62.431688
11
416.631570
21
61.389231
0
LINE
8
0
10
416.631570
20
61.389231
11
417.659502
21
60.603420
0
LINE
8
0
10
417.659502
20
60.603420
11
418.854914
21
60.106004
0
LINE
8
0
10
418.854914
20
60.106004
11
420.159520
21
59.934025
0
LINE
8
0
10
416.673798
20
10.332650
11
405.530964
21
10.332650
0
LINE
8
0
10
405.530964
20
20.333887
11
404.226385
21
20.159262
0
LINE
8
0
10
404.226385
20
20.159262
11
403.030972
21
19.661846
0
LINE
8
0
10
403.030972
20
19.661846
11
402.003041
21
18.876035
0
LINE
8
0
10
402.003041
20
18.876035
11
401.200852
21
17.833578
0
LINE
8
0
10
401.200852
20
17.833578
11
400.698461
21
16.616496
0
LINE
8
0
10
400.698461
20
16.616496
11
400.530980
21
15.333268
0
LINE
8
0
10
400.530980
20
15.333268
11
400.698461
21
14.050041
0
LINE
8
0
10
400.698461
20
14.050041
11
401.200852
21
12.832959
0
LINE
8
0
10
401.200852
20
12.832959
11
402.003041
21
11.790502
0
LINE
8
0
10
402.003041
20
11.790502
11
403.030972
21
11.002045
0
LINE
8
0
10
403.030972
20
11.002045
11
404.226385
21
10.507274
0
LINE
8
0
10
404.226385
20
10.507274
11
405.530964
21
10.332650
0
LINE
8
0
10
405.530964
20
20.331241
11
416.673798
21
20.331241
0
LINE
8
0
10
416.673798
20
10.332650
11
417.978377
21
10.507274
0
LINE
8
0
10
417.978377
20
10.507274
11
419.173790
21
11.002045
0
LINE
8
0
10
419.173790
20
11.002045
11
420.201747
21
11.790502
0
LINE
8
0
10
420.201747
20
11.790502
11
421.003910
21
12.832959
0
LINE
8
0
10
421.003910
20
12.832959
11
421.506327
21
14.050041
0
LINE
8
0
10
421.506327
20
14.050041
11
421.673702
21
15.333268
0
LINE
8
0
10
421.673702
20
15.333268
11
421.506327
21
16.616496
0
LINE
8
0
10
421.506327
20
16.616496
11
421.003910
21
17.833578
0
LINE
8
0
10
421.003910
20
17.833578
11
420.201747
21
18.876035
0
LINE
8
0
10
420.201747
20
18.876035
11
419.173790
21
19.661846
0
LINE
8
0
10
419.173790
20
19.661846
11
417.978377
21
20.159262
0
LINE
8
0
10
417.978377
20
20.159262
11
416.673798
21
20.333887
0
LINE
8
0
10
261.390114
20
139.932547
11
243.537112
21
139.932547
0
LINE
8
0
10
243.537112
20
149.932461
11
242.529315
21
149.830861
0
LINE
8
0
10
242.529315
20
149.830861
11
241.590839
21
149.539555
0
LINE
8
0
10
241.590839
20
149.539555
11
240.741528
21
149.078652
0
LINE
8
0
10
240.741528
20
149.078652
11
240.001489
21
148.467994
0
LINE
8
0
10
240.001489
20
148.467994
11
239.391096
21
147.728220
0
LINE
8
0
10
239.391096
20
147.728220
11
238.929928
21
146.878909
0
LINE
8
0
10
238.929928
20
146.878909
11
238.638622
21
145.940168
0
LINE
8
0
10
238.638622
20
145.940168
11
238.537022
21
144.932636
0
LINE
8
0
10
238.537022
20
144.932636
11
238.638622
21
143.924840
0
LINE
8
0
10
238.638622
20
143.924840
11
238.929928
21
142.986364
0
LINE
8
0
10
238.929928
20
142.986364
11
239.391096
21
142.137052
0
LINE
8
0
10
239.391096
20
142.137052
11
240.001489
21
141.397014
0
LINE
8
0
10
240.001489
20
141.397014
11
240.741528
21
140.786621
0
LINE
8
0
10
240.741528
20
140.786621
11
241.590839
21
140.325453
0
LINE
8
0
10
241.590839
20
140.325453
11
242.529315
21
140.034147
0
LINE
8
0
10
242.529315
20
140.034147
11
243.537112
21
139.932547
0
LINE
8
0
10
243.537112
20
149.932461
11
261.390114
21
149.932461
0
LINE
8
0
10
261.389850
20
139.932547
11
262.397646
21
140.034147
0
LINE
8
0
10
262.397646
20
140.034147
11
263.336122
21
140.325453
0
LINE
8
0
10
263.336122
20
140.325453
11
264.185434
21
140.786621
0
LINE
8
0
10
264.185434
20
140.786621
11
264.925472
21
141.397014
0
LINE
8
0
10
264.925472
20
141.397014
11
265.535865
21
142.137052
0
LINE
8
0
10
265.535865
20
142.137052
11
265.997034
21
142.986364
0
LINE
8
0
10
265.997034
20
142.986364
11
266.288339
21
143.924840
0
LINE
8
0
10
266.288339
20
143.924840
11
266.389939
21
144.932636
0
LINE
8
0
10
266.389939
20
144.932636
11
266.288339
21
145.940168
0
LINE
8
0
10
266.288339
20
145.940168
11
265.997034
21
146.878909
0
LINE
8
0
10
265.997034
20
146.878909
11
265.535865
21
147.728220
0
LINE
8
0
10
265.535865
20
147.728220
11
264.925472
21
148.467994
0
LINE
8
0
10
264.925472
20
148.467994
11
264.185434
21
149.078652
0
LINE
8
0
10
264.185434
20
149.078652
11
263.336122
21
149.539555
0
LINE
8
0
10
263.336122
20
149.539555
11
262.397646
21
149.830861
0
LINE
8
0
10
262.397646
20
149.830861
11
261.389850
21
149.932461
0
LINE
8
0
10
253.261331
20
100.333203
11
271.114333
21
100.333203
0
LINE
8
0
10
271.114069
20
90.331965
11
272.121865
21
90.435153
0
LINE
8
0
10
272.121865
20
90.435153
11
273.060341
21
90.726194
0
LINE
8
0
10
273.060341
20
90.726194
11
273.909653
21
91.186569
0
LINE
8
0
10
273.909653
20
91.186569
11
274.649691
21
91.797755
0
LINE
8
0
10
274.649691
20
91.797755
11
275.260349
21
92.535942
0
LINE
8
0
10
275.260349
20
92.535942
11
275.721253
21
93.385253
0
LINE
8
0
10
275.721253
20
93.385253
11
276.012558
21
94.324523
0
LINE
8
0
10
276.012558
20
94.324523
11
276.114158
21
95.332584
0
LINE
8
0
10
276.114158
20
95.332584
11
276.012558
21
96.340645
0
LINE
8
0
10
276.012558
20
96.340645
11
275.721253
21
97.279915
0
LINE
8
0
10
275.721253
20
97.279915
11
275.260349
21
98.129227
0
LINE
8
0
10
275.260349
20
98.129227
11
274.649691
21
98.867413
0
LINE
8
0
10
274.649691
20
98.867413
11
273.909653
21
99.478600
0
LINE
8
0
10
273.909653
20
99.478600
11
273.060341
21
99.938974
0
LINE
8
0
10
273.060341
20
99.938974
11
272.121865
21
100.230016
0
LINE
8
0
10
272.121865
20
100.230016
11
271.114069
21
100.333203
0
LINE
8
0
10
271.114333
20
90.331965
11
253.261331
21
90.331965
0
LINE
8
0
10
253.261331
20
100.333203
11
252.253799
21
100.230016
0
LINE
8
0
10
252.253799
20
100.230016
11
251.315058
21
99.938974
0
LINE
8
0
10
251.315058
20
99.938974
11
250.465747
21
99.478600
0
LINE
8
0
10
250.465747
20
99.478600
11
249.725708
21
98.867413
0
LINE
8
0
10
249.725708
20
98.867413
11
249.115315
21
98.129227
0
LINE
8
0
10
249.115315
20
98.129227
11
248.654412
21
97.279915
0
LINE
8
0
10
248.654412
20
97.279915
11
248.362841
21
96.340645
0
LINE
8
0
10
248.362841
20
96.340645
11
248.261241
21
95.332584
0
LINE
8
0
10
248.261241
20
95.332584
11
248.362841
21
94.324523
0
LINE
8
0
10
248.362841
20
94.324523
11
248.654412
21
93.385253
0
LINE
8
0
10
248.654412
20
93.385253
11
249.115315
21
92.535942
0
LINE
8
0
10
249.115315
20
92.535942
11
249.725708
21
91.797755
0
LINE
8
0
10
249.725708
20
91.797755
11
250.465747
21
91.186569
0
LINE
8
0
10
250.465747
20
91.186569
11
251.315058
21
90.726194
0
LINE
8
0
10
251.315058
20
90.726194
11
252.253799
21
90.435153
0
LINE
8
0
10
252.253799
20
90.435153
11
253.261331
21
90.331965
0
LINE
8
0
10
228.102927
20
10.332650
11
216.960014
21
10.332650
0
LINE
8
0
10
216.960014
20
20.333887
11
215.655355
21
20.159262
0
LINE
8
0
10
215.655355
20
20.159262
11
214.459969
21
19.661846
0
LINE
8
0
10
214.459969
20
19.661846
11
213.432064
21
18.876035
0
LINE
8
0
10
213.432064
20
18.876035
11
212.629849
21
17.833578
0
LINE
8
0
10
212.629849
20
17.833578
11
212.127406
21
16.616496
0
LINE
8
0
10
212.127406
20
16.616496
11
211.959925
21
15.333268
0
LINE
8
0
10
211.959925
20
15.333268
11
212.127406
21
14.050041
0
LINE
8
0
10
212.127406
20
14.050041
11
212.629849
21
12.832959
0
LINE
8
0
10
212.629849
20
12.832959
11
213.432064
21
11.790502
0
LINE
8
0
10
213.432064
20
11.790502
11
214.459969
21
11.002045
0
LINE
8
0
10
214.459969
20
11.002045
11
215.655355
21
10.507274
0
LINE
8
0
10
215.655355
20
10.507274
11
216.960014
21
10.332650
0
LINE
8
0
10
216.960014
20
20.331241
11
228.102927
21
20.331241
0
LINE
8
0
10
228.102927
20
10.332650
11
229.407321
21
10.507274
0
LINE
8
0
10
229.407321
20
10.507274
11
230.602972
21
11.002045
0
LINE
8
0
10
230.602972
20
11.002045
11
231.630877
21
11.790502
0
LINE
8
0
10
231.630877
20
11.790502
11
232.433092
21
12.832959
0
LINE
8
0
10
232.433092
20
12.832959
11
232.935271
21
14.050041
0
LINE
8
0
10
232.935271
20
14.050041
11
233.102752
21
15.333268
0
LINE
8
0
10
233.102752
20
15.333268
11
232.935271
21
16.616496
0
LINE
8
0
10
232.935271
20
16.616496
11
232.433092
21
17.833578
0
LINE
8
0
10
232.433092
20
17.833578
11
231.630877
21
18.876035
0
LINE
8
0
10
231.630877
20
18.876035
11
230.602972
21
19.661846
0
LINE
8
0
10
230.602972
20
19.661846
11
229.407321
21
20.159262
0
LINE
8
0
10
229.407321
20
20.159262
11
228.102927
21
20.333887
0
LINE
8
0
10
231.588544
20
69.932616
11
242.731457
21
69.932616
0
LINE
8
0
10
242.731457
20
59.934025
11
244.035851
21
60.106004
0
LINE
8
0
10
244.035851
20
60.106004
11
245.231501
21
60.603420
0
LINE
8
0
10
245.231501
20
60.603420
11
246.259406
21
61.389231
0
LINE
8
0
10
246.259406
20
61.389231
11
247.061622
21
62.431688
0
LINE
8
0
10
247.061622
20
62.431688
11
247.563800
21
63.648770
0
LINE
8
0
10
247.563800
20
63.648770
11
247.731282
21
64.931997
0
LINE
8
0
10
247.731282
20
64.931997
11
247.563800
21
66.215225
0
LINE
8
0
10
247.563800
20
66.215225
11
247.061622
21
67.432307
0
LINE
8
0
10
247.061622
20
67.432307
11
246.259406
21
68.474764
0
LINE
8
0
10
246.259406
20
68.474764
11
245.231501
21
69.263221
0
LINE
8
0
10
245.231501
20
69.263221
11
244.035851
21
69.760637
0
LINE
8
0
10
244.035851
20
69.760637
11
242.731457
21
69.932616
0
LINE
8
0
10
242.731457
20
59.931379
11
231.588544
21
59.931379
0
LINE
8
0
10
231.588544
20
69.932616
11
230.283885
21
69.760637
0
LINE
8
0
10
230.283885
20
69.760637
11
229.088499
21
69.263221
0
LINE
8
0
10
229.088499
20
69.263221
11
228.060594
21
68.474764
0
LINE
8
0
10
228.060594
20
68.474764
11
227.258378
21
67.432307
0
LINE
8
0
10
227.258378
20
67.432307
11
226.755935
21
66.215225
0
LINE
8
0
10
226.755935
20
66.215225
11
226.588454
21
64.931997
0
LINE
8
0
10
226.588454
20
64.931997
11
226.755935
21
63.648770
0
LINE
8
0
10
226.755935
20
63.648770
11
227.258378
21
62.431688
0
LINE
8
0
10
227.258378
20
62.431688
11
228.060594
21
61.389231
0
LINE
8
0
10
228.060594
20
61.389231
11
229.088499
21
60.603420
0
LINE
8
0
10
229.088499
20
60.603420
11
230.283885
21
60.106004
0
LINE
8
0
10
230.283885
20
60.106004
11
231.588544
21
59.934025
0
LINE
8
0
10
96.390335
20
139.932547
11
78.536274
21
139.932547
0
LINE
8
0
10
78.536274
20
149.932461
11
77.530858
21
149.830861
0
LINE
8
0
10
77.530858
20
149.830861
11
76.591589
21
149.539555
0
LINE
8
0
10
76.591589
20
149.539555
11
75.742277
21
149.078652
0
LINE
8
0
10
75.742277
20
149.078652
11
75.001445
21
148.467994
0
LINE
8
0
10
75.001445
20
148.467994
11
74.390258
21
147.728220
0
LINE
8
0
10
74.390258
20
147.728220
11
73.929884
21
146.878909
0
LINE
8
0
10
73.929884
20
146.878909
11
73.638843
21
145.940168
0
LINE
8
0
10
73.638843
20
145.940168
11
73.538301
21
144.932636
0
LINE
8
0
10
73.538301
20
144.932636
11
73.638843
21
143.924840
0
LINE
8
0
10
73.638843
20
143.924840
11
73.929884
21
142.986364
0
LINE
8
0
10
73.929884
20
142.986364
11
74.390258
21
142.137052
0
LINE
8
0
10
74.390258
20
142.137052
11
75.001445
21
141.397014
0
LINE
8
0
10
75.001445
20
141.397014
11
75.742277
21
140.786621
0
LINE
8
0
10
75.742277
20
140.786621
11
76.591589
21
140.325453
0
LINE
8
0
10
76.591589
20
140.325453
11
77.530858
21
140.034147
0
LINE
8
0
10
77.530858
20
140.034147
11
78.536274
21
139.932547
0
LINE
8
0
10
78.536274
20
149.932461
11
96.390335
21
149.932461
0
LINE
8
0
10
96.390335
20
139.932547
11
97.398396
21
140.034147
0
LINE
8
0
10
97.398396
20
140.034147
11
98.337666
21
140.325453
0
LINE
8
0
10
98.337666
20
140.325453
11
99.186977
21
140.786621
0
LINE
8
0
10
99.186977
20
140.786621
11
99.925164
21
141.397014
0
LINE
8
0
10
99.925164
20
141.397014
11
100.536350
21
142.137052
0
LINE
8
0
10
100.536350
20
142.137052
11
100.996725
21
142.986364
0
LINE
8
0
10
100.996725
20
142.986364
11
101.287766
21
143.924840
0
LINE
8
0
10
101.287766
20
143.924840
11
101.390953
21
144.932636
0
LINE
8
0
10
101.390953
20
144.932636
11
101.287766
21
145.940168
0
LINE
8
0
10
101.287766
20
145.940168
11
100.996725
21
146.878909
0
LINE
8
0
10
100.996725
20
146.878909
11
100.536350
21
147.728220
0
LINE
8
0
10
100.536350
20
147.728220
11
99.925164
21
148.467994
0
LINE
8
0
10
99.925164
20
148.467994
11
99.186977
21
149.078652
0
LINE
8
0
10
99.186977
20
149.078652
11
98.337666
21
149.539555
0
LINE
8
0
10
98.337666
20
149.539555
11
97.398396
21
149.830861
0
LINE
8
0
10
97.398396
20
149.830861
11
96.390335
21
149.932461
0
LINE
8
0
10
106.113760
20
90.331965
11
88.262345
21
90.331965
0
LINE
8
0
10
88.262345
20
100.333203
11
87.254284
21
100.230016
0
LINE
8
0
10
87.254284
20
100.230016
11
86.315014
21
99.938974
0
LINE
8
0
10
86.315014
20
99.938974
11
85.465703
21
99.478600
0
LINE
8
0
10
85.465703
20
99.478600
11
84.727516
21
98.867413
0
LINE
8
0
10
84.727516
20
98.867413
11
84.116329
21
98.129227
0
LINE
8
0
10
84.116329
20
98.129227
11
83.655955
21
97.279915
0
LINE
8
0
10
83.655955
20
97.279915
11
83.362268
21
96.340645
0
LINE
8
0
10
83.362268
20
96.340645
11
83.261726
21
95.332584
0
LINE
8
0
10
83.261726
20
95.332584
11
83.362268
21
94.324523
0
LINE
8
0
10
83.362268
20
94.324523
11
83.655955
21
93.385253
0
LINE
8
0
10
83.655955
20
93.385253
11
84.116329
21
92.535942
0
LINE
8
0
10
84.116329
20
92.535942
11
84.727516
21
91.797755
0
LINE
8
0
10
84.727516
20
91.797755
11
85.465703
21
91.186569
0
LINE
8
0
10
85.465703
20
91.186569
11
86.315014
21
90.726194
0
LINE
8
0
10
86.315014
20
90.726194
11
87.254284
21
90.435153
0
LINE
8
0
10
87.254284
20
90.435153
11
88.262345
21
90.331965
0
LINE
8
0
10
88.262345
20
100.333203
11
106.113760
21
100.333203
0
LINE
8
0
10
106.113760
20
90.331965
11
107.121821
21
90.435153
0
LINE
8
0
10
107.121821
20
90.435153
11
108.061091
21
90.726194
0
LINE
8
0
10
108.061091
20
90.726194
11
108.910402
21
91.186569
0
LINE
8
0
10
108.910402
20
91.186569
11
109.651235
21
91.797755
0
LINE
8
0
10
109.651235
20
91.797755
11
110.259776
21
92.535942
0
LINE
8
0
10
110.259776
20
92.535942
11
110.722796
21
93.385253
0
LINE
8
0
10
110.722796
20
93.385253
11
111.013837
21
94.324523
0
LINE
8
0
10
111.013837
20
94.324523
11
111.114379
21
95.332584
0
LINE
8
0
10
111.114379
20
95.332584
11
111.013837
21
96.340645
0
LINE
8
0
10
111.013837
20
96.340645
11
110.722796
21
97.279915
0
LINE
8
0
10
110.722796
20
97.279915
11
110.259776
21
98.129227
0
LINE
8
0
10
110.259776
20
98.129227
11
109.651235
21
98.867413
0
LINE
8
0
10
109.651235
20
98.867413
11
108.910402
21
99.478600
0
LINE
8
0
10
108.910402
20
99.478600
11
108.061091
21
99.938974
0
LINE
8
0
10
108.061091
20
99.938974
11
107.121821
21
100.230016
0
LINE
8
0
10
107.121821
20
100.230016
11
106.113760
21
100.333203
0
LINE
8
0
10
90.159405
20
69.932616
11
101.303641
21
69.932616
0
LINE
8
0
10
101.303641
20
59.934025
11
102.608035
21
60.106004
0
LINE
8
0
10
102.608035
20
60.106004
11
103.803950
21
60.603420
0
LINE
8
0
10
103.803950
20
60.603420
11
104.830532
21
61.389231
0
LINE
8
0
10
104.830532
20
61.389231
11
105.632219
21
62.431688
0
LINE
8
0
10
105.632219
20
62.431688
11
106.134927
21
63.648770
0
LINE
8
0
10
106.134927
20
63.648770
11
106.304260
21
64.931997
0
LINE
8
0
10
106.304260
20
64.931997
11
106.134927
21
66.215225
0
LINE
8
0
10
106.134927
20
66.215225
11
105.632219
21
67.432307
0
LINE
8
0
10
105.632219
20
67.432307
11
104.830532
21
68.474764
0
LINE
8
0
10
104.830532
20
68.474764
11
103.803950
21
69.263221
0
LINE
8
0
10
103.803950
20
69.263221
11
102.608035
21
69.760637
0
LINE
8
0
10
102.608035
20
69.760637
11
101.303641
21
69.932616
0
LINE
8
0
10
101.303641
20
59.931379
11
90.159405
21
59.931379
0
LINE
8
0
10
90.159405
20
69.932616
11
88.855011
21
69.760637
0
LINE
8
0
10
88.855011
20
69.760637
11
87.659096
21
69.263221
0
LINE
8
0
10
87.659096
20
69.263221
11
86.632514
21
68.474764
0
LINE
8
0
10
86.632514
20
68.474764
11
85.830827
21
67.432307
0
LINE
8
0
10
85.830827
20
67.432307
11
85.328119
21
66.215225
0
LINE
8
0
10
85.328119
20
66.215225
11
85.161432
21
64.931997
0
LINE
8
0
10
85.161432
20
64.931997
11
85.328119
21
63.648770
0
LINE
8
0
10
85.328119
20
63.648770
11
85.830827
21
62.431688
0
LINE
8
0
10
85.830827
20
62.431688
11
86.632514
21
61.389231
0
LINE
8
0
10
86.632514
20
61.389231
11
87.659096
21
60.603420
0
LINE
8
0
10
87.659096
20
60.603420
11
88.855011
21
60.106004
0
LINE
8
0
10
88.855011
20
60.106004
11
90.159405
21
59.934025
0
LINE
8
0
10
86.674847
20
10.332650
11
75.530611
21
10.332650
0
LINE
8
0
10
75.530611
20
20.333887
11
74.226217
21
20.159262
0
LINE
8
0
10
74.226217
20
20.159262
11
73.032947
21
19.661846
0
LINE
8
0
10
73.032947
20
19.661846
11
72.003720
21
18.876035
0
LINE
8
0
10
72.003720
20
18.876035
11
71.202033
21
17.833578
0
LINE
8
0
10
71.202033
20
17.833578
11
70.699325
21
16.616496
0
LINE
8
0
10
70.699325
20
16.616496
11
70.532638
21
15.333268
0
LINE
8
0
10
70.532638
20
15.333268
11
70.699325
21
14.050041
0
LINE
8
0
10
70.699325
20
14.050041
11
71.202033
21
12.832959
0
LINE
8
0
10
71.202033
20
12.832959
11
72.003720
21
11.790502
0
LINE
8
0
10
72.003720
20
11.790502
11
73.032947
21
11.002045
0
LINE
8
0
10
73.032947
20
11.002045
11
74.226217
21
10.507274
0
LINE
8
0
10
74.226217
20
10.507274
11
75.530611
21
10.332650
0
LINE
8
0
10
75.530611
20
20.331241
11
86.674847
21
20.331241
0
LINE
8
0
10
86.674847
20
10.332650
11
87.979241
21
10.507274
0
LINE
8
0
10
87.979241
20
10.507274
11
89.175156
21
11.002045
0
LINE
8
0
10
89.175156
20
11.002045
11
90.201738
21
11.790502
0
LINE
8
0
10
90.201738
20
11.790502
11
91.006071
21
12.832959
0
LINE
8
0
10
91.006071
20
12.832959
11
91.506133
21
14.050041
0
LINE
8
0
10
91.506133
20
14.050041
11
91.675466
21
15.333268
0
LINE
8
0
10
91.675466
20
15.333268
11
91.506133
21
16.616496
0
LINE
8
0
10
91.506133
20
16.616496
11
91.006071
21
17.833578
0
LINE
8
0
10
91.006071
20
17.833578
11
90.201738
21
18.876035
0
LINE
8
0
10
90.201738
20
18.876035
11
89.175156
21
19.661846
0
LINE
8
0
10
89.175156
20
19.661846
11
87.979241
21
20.159262
0
LINE
8
0
10
87.979241
20
20.159262
11
86.674847
21
20.333887
0
LINE
8
0
10
0.132393
20
160.132665
11
0.132393
21
0.132975
0
LINE
8
0
10
0.132393
20
0.132975
11
790.129607
21
0.132975
0
LINE
8
0
10
790.129607
20
0.132975
11
790.129607
21
160.132665
0
LINE
8
0
10
790.129607
20
160.132665
11
0.132393
21
160.132665
0
LINE
8
Layer 1
10
395.924749
20
377.925749
11
394.337251
21
376.338251
0
LINE
8
Layer 1
10
395.131000
20
378.454912
11
395.131000
21
375.809088
0
LINE
8
Layer 1
10
397.247661
20
376.073668
11
396.189332
21
375.015339
0
LINE
8
Layer 1
10
396.718495
20
376.602834
11
395.660166
21
375.544505
0
LINE
8
Layer 1
10
396.189332
20
377.132000
11
395.131000
21
376.073668
 0 
ENDSEC
 0 
EOF